<svg width="20" height="20" viewBox="0 0 20 20" fill="none" xmlns="http://www.w3.org/2000/svg">
<mask id="mask0_23_634" style="mask-type:alpha" maskUnits="userSpaceOnUse" x="0" y="0" width="20" height="20">
<path d="M17.5765 3.83198C17.1403 3.39393 16.4309 3.39224 15.9928 3.82875L9.99995 9.79703L4.00709 3.82846C3.56903 3.39229 2.86021 3.39352 2.42306 3.8317C1.98658 4.2701 1.98812 4.9789 2.4263 5.41573L9.20544 12.1674C9.20578 12.1674 9.20578 12.1678 9.20611 12.1681C9.20645 12.1684 9.20645 12.1684 9.20678 12.1688L9.20935 12.1713C9.23524 12.1969 9.26471 12.2164 9.29227 12.2389C9.32263 12.2639 9.35142 12.292 9.38379 12.3131C9.42151 12.3381 9.46247 12.3559 9.50254 12.3758C9.5281 12.3883 9.55209 12.4049 9.5781 12.4155C9.62966 12.4363 9.68301 12.4495 9.73647 12.4625C9.7531 12.4663 9.76883 12.4737 9.78546 12.4769C9.85622 12.4907 9.92787 12.4975 9.99952 12.4975C10.0712 12.4975 10.1429 12.4908 10.2136 12.4769C10.2328 12.4731 10.2508 12.4651 10.2699 12.4603C10.3208 12.4475 10.3721 12.4353 10.4213 12.4152C10.4446 12.4059 10.466 12.3909 10.4888 12.3801C10.5317 12.3593 10.5755 12.3398 10.6158 12.3129C10.6414 12.2959 10.6635 12.2731 10.6881 12.2537C10.7224 12.2268 10.7586 12.2025 10.7899 12.1708L17.5731 5.41536C18.0119 4.9793 18.0132 4.27016 17.5768 3.83211L17.5765 3.83198Z" fill="black"/>
</mask>
<g mask="url(#mask0_23_634)">
<rect x="-18" y="-6" width="66" height="41" fill="#101820"/>
</g>
</svg>
